P3
64 64
255
160 156 168
160 156 168
152 156 168
160 156 168
160 164 176
160 160 176
160 164 176
160 164 176
168 168 176
168 172 184
168 172 184
168 172 184
176 176 184
176 176 184
176 172 184
176 172 184
176 168 184
176 172 184
176 172 184
176 172 184
176 172 184
176 176 184
184 176 192
176 172 184
184 184 192
184 176 192
192 184 192
192 184 192
184 184 192
184 184 192
192 184 192
192 184 192
192 188 192
192 188 192
192 188 200
192 188 200
192 188 200
192 188 200
184 184 192
184 184 192
184 184 192
184 184 192
192 188 200
192 192 200
192 188 200
192 188 200
192 188 200
192 188 200
184 188 192
192 188 200
192 192 200
192 192 192
192 188 200
192 192 200
192 192 200
192 192 200
192 192 200
192 192 200
192 192 200
184 188 192
184 188 192
192 192 200
200 196 200
184 188 192
152 156 168
160 160 176
160 156 168
160 160 176
160 160 176
160 160 176
160 164 176
176 176 192
168 168 184
168 168 184
176 172 184
176 172 184
176 176 192
176 176 192
176 176 184
176 172 184
176 168 184
176 172 184
168 172 184
176 176 192
176 172 184
176 172 184
176 172 184
176 172 184
176 176 184
176 176 184
184 184 192
184 180 192
192 188 200
192 188 200
192 188 192
192 188 192
184 184 192
192 192 200
192 188 200
192 188 200
192 188 200
184 184 192
184 184 192
184 188 192
192 188 200
184 184 192
192 192 200
192 192 200
192 188 200
184 188 192
192 188 200
192 192 200
184 188 192
184 188 192
192 188 200
192 188 200
192 192 192
192 192 192
184 188 192
184 188 192
192 196 200
192 192 200
184 188 192
184 188 192
184 188 192
192 192 192
200 204 200
184 188 192
152 156 168
160 164 176
160 160 176
168 164 176
168 160 176
168 164 176
160 164 176
168 168 184
168 164 184
176 172 184
168 168 184
168 168 184
168 172 184
176 176 192
176 176 184
176 172 184
176 172 184
176 172 184
176 172 192
176 176 192
176 180 192
184 180 192
176 176 192
184 180 192
184 180 192
176 176 184
192 192 200
184 184 192
192 192 200
192 192 200
192 192 200
192 192 200
192 192 200
192 188 192
192 192 200
200 196 208
192 188 200
192 188 200
192 188 200
192 192 200
184 188 200
184 188 192
192 192 200
192 188 200
184 184 192
192 192 200
192 188 200
192 192 200
192 192 200
184 184 192
192 188 200
184 188 192
192 188 200
192 188 200
184 184 192
184 188 200
200 200 200
192 192 192
192 188 192
192 192 192
192 188 192
184 184 192
200 200 200
192 192 192
160 164 176
160 160 176
160 160 176
168 168 184
168 164 176
168 164 176
168 164 176
168 164 176
168 164 184
184 180 192
176 168 184
176 172 184
168 168 184
176 176 192
184 176 192
184 176 192
176 180 192
176 180 192
176 180 192
176 180 192
184 176 192
184 180 192
176 180 192
176 176 184
184 180 192
184 176 184
184 180 192
200 196 208
192 192 200
192 188 200
200 196 200
200 196 208
192 192 200
184 184 192
192 192 200
200 196 208
192 192 200
192 192 200
192 192 200
208 204 216
184 188 200
184 188 200
192 192 200
192 192 200
184 188 192
192 188 200
192 192 200
192 192 200
192 188 200
192 192 200
192 188 200
192 188 200
192 188 200
184 188 192
184 184 192
192 192 200
200 200 200
192 192 192
184 188 192
192 192 200
192 192 192
192 188 192
200 200 200
192 192 192
160 164 176
160 160 176
160 164 176
168 168 184
168 168 184
168 164 184
168 168 184
168 164 176
176 168 184
176 172 192
176 172 192
176 176 192
168 168 184
176 176 192
176 176 192
176 180 192
184 180 192
176 180 192
184 180 192
176 176 192
176 180 192
176 176 192
176 176 184
176 180 192
184 180 192
184 180 192
184 180 192
200 196 208
192 188 200
200 196 208
192 192 200
192 196 200
192 192 200
184 184 192
192 188 200
200 200 208
192 192 200
192 192 200
192 192 200
192 192 200
192 188 200
192 188 200
200 200 208
192 188 200
192 192 200
192 188 200
200 200 200
192 196 200
192 196 200
192 192 200
184 188 200
192 196 200
192 188 200
192 188 200
184 188 200
192 192 200
200 200 200
192 188 192
192 192 200
192 196 200
192 192 192
192 192 192
200 200 200
192 196 200
160 160 176
160 160 176
168 164 176
168 164 176
168 168 184
168 168 184
168 168 184
160 160 176
168 164 184
184 176 192
168 168 184
176 176 192
176 176 192
176 172 184
176 176 192
184 180 192
176 176 192
176 176 192
184 176 192
184 180 192
184 180 192
184 180 192
176 176 184
176 176 184
184 180 192
184 180 192
184 188 192
200 204 208
200 196 200
192 192 200
200 196 200
200 196 208
192 192 200
192 188 200
192 188 200
200 196 208
200 200 208
192 196 200
192 192 200
192 196 200
184 188 200
184 184 192
200 200 208
192 192 200
192 192 200
192 188 200
192 192 200
192 196 200
200 200 200
192 196 200
184 188 200
200 204 208
192 196 200
184 192 200
184 188 200
184 188 192
200 200 200
192 196 200
192 196 200
192 192 200
192 196 200
192 192 200
200 200 208
192 192 200
160 160 176
160 160 176
160 164 176
160 164 176
168 164 176
168 164 176
168 164 176
168 168 184
168 172 184
184 180 192
176 168 184
184 180 192
176 176 192
176 176 192
176 172 184
176 180 192
176 176 192
176 180 192
184 176 192
184 180 192
184 180 192
184 180 192
184 176 192
184 184 192
184 184 192
184 176 192
192 188 200
208 204 216
192 188 200
192 196 200
200 196 208
200 196 208
192 192 200
184 192 200
192 192 200
200 196 208
200 200 208
192 196 200
200 196 208
192 192 200
192 188 200
184 188 200
200 200 208
192 192 200
192 192 200
192 188 200
192 192 200
192 196 200
200 200 208
200 200 208
200 204 208
200 200 208
200 200 200
200 196 200
192 192 200
184 184 192
200 200 208
192 192 200
200 196 200
200 196 200
192 192 200
192 188 192
200 204 208
184 184 184
160 160 176
160 160 176
160 160 176
168 164 184
168 168 184
168 164 176
168 168 184
168 168 184
176 176 184
184 180 192
176 172 184
176 180 192
176 172 192
168 168 184
176 176 184
184 180 192
184 180 192
184 180 192
184 180 192
184 184 192
184 184 200
184 180 192
176 176 192
176 176 192
176 176 192
184 180 192
200 200 200
208 204 208
192 188 200
192 192 200
192 192 200
184 184 192
184 184 192
192 196 208
200 196 208
192 196 200
200 196 208
192 192 200
200 196 208
200 196 208
192 188 200
184 184 192
200 196 208
200 200 208
192 196 200
192 192 200
200 196 208
200 196 208
200 200 208
200 204 208
200 200 208
200 200 208
192 192 200
192 196 208
208 204 208
192 188 192
200 204 208
192 196 200
192 200 200
192 196 200
192 192 200
192 196 200
208 204 208
184 184 184
160 156 168
160 160 176
160 164 176
168 164 184
168 168 184
168 168 184
168 168 184
168 172 184
184 180 192
184 180 192
168 172 184
184 184 200
176 172 184
176 172 184
176 176 184
184 188 200
176 176 184
184 180 192
176 176 192
192 184 200
184 184 200
176 176 192
176 176 192
176 180 192
184 184 192
184 184 192
208 200 208
208 204 208
200 200 208
192 192 200
192 188 200
184 188 200
200 200 208
200 200 208
200 196 208
192 196 200
200 200 208
192 192 200
192 196 200
200 200 208
200 200 208
184 188 192
192 192 200
208 204 208
192 192 200
200 200 208
200 196 208
200 196 208
200 196 208
192 192 200
192 192 200
192 192 200
200 200 208
200 200 208
208 208 208
184 184 184
208 208 208
192 196 200
192 196 200
192 200 200
192 196 200
192 196 200
208 208 208
176 180 184
168 164 176
168 164 184
168 164 176
168 164 176
168 172 184
168 168 184
168 168 184
168 172 184
176 176 192
184 184 192
176 172 184
192 184 200
176 176 184
176 172 184
184 176 192
184 180 192
176 172 184
184 180 192
176 176 192
184 184 200
184 180 192
184 180 192
184 180 192
184 184 200
192 188 200
184 184 192
208 204 208
208 204 208
208 204 208
192 192 200
192 188 200
208 204 216
208 204 208
192 192 200
192 192 200
192 192 200
192 192 200
192 192 200
200 196 208
192 192 200
192 192 200
192 188 200
200 196 208
192 192 200
200 196 208
200 196 208
200 196 208
200 200 208
200 204 208
200 200 208
200 196 200
200 196 200
200 196 200
208 204 208
208 208 208
184 184 184
208 208 208
200 204 208
184 188 200
192 196 208
200 200 208
200 200 208
208 208 208
192 188 192
168 168 184
168 168 184
168 164 176
176 168 184
176 168 184
176 172 184
176 168 184
168 168 184
176 172 192
192 184 200
168 172 184
184 184 200
176 176 184
176 172 184
184 184 192
184 180 192
176 176 184
184 184 192
176 180 192
184 184 200
184 180 192
192 188 200
184 184 192
192 188 200
184 180 192
192 188 200
192 184 192
208 200 208
192 192 200
192 192 200
208 204 208
208 208 216
200 196 208
192 188 200
192 192 200
192 192 200
200 196 208
200 192 200
192 196 200
192 196 200
192 196 200
200 200 208
208 204 216
200 196 208
200 200 200
200 200 200
200 204 208
200 196 200
192 196 200
200 200 208
200 200 200
192 188 192
200 200 200
208 208 216
208 204 208
184 180 184
208 208 208
208 208 208
200 200 208
192 188 192
192 196 200
200 204 208
208 212 216
192 188 192
176 172 184
168 168 184
168 172 184
168 168 184
168 168 184
176 172 184
176 176 184
176 172 184
176 168 184
192 188 200
176 172 184
192 184 192
176 172 184
184 176 184
176 176 192
192 188 200
176 176 184
176 176 184
184 184 192
192 188 200
184 184 192
184 188 200
192 184 200
184 180 192
192 192 200
192 188 200
184 184 192
200 196 208
200 196 208
200 200 208
208 208 216
200 204 208
200 196 208
192 192 200
200 196 208
200 196 208
200 196 208
200 196 208
192 196 208
192 192 200
200 196 200
200 200 208
200 200 208
200 204 208
200 200 208
200 200 208
200 204 208
200 200 200
200 196 200
200 196 200
200 200 200
192 192 200
192 196 200
208 208 208
208 208 208
176 176 176
200 204 208
208 208 208
200 200 208
200 200 208
200 196 200
200 204 208
208 208 208
184 184 184
176 172 184
168 168 184
168 164 184
168 168 184
176 172 184
176 168 184
216 140 144
224 148 152
176 172 184
184 184 200
208 156 160
232 180 184
232 124 88
248 148 112
176 172 184
192 184 192
184 176 184
192 184 192
192 184 200
192 188 200
184 180 192
184 184 192
200 184 192
208 188 200
192 188 200
200 196 200
200 192 200
192 184 192
208 200 208
208 200 208
224 212 216
200 188 192
192 192 200
192 192 200
200 196 200
192 192 200
200 196 200
200 200 208
200 200 208
192 192 200
192 188 200
168 164 176
224 160 152
240 176 168
200 200 208
200 200 208
200 200 208
200 200 208
200 200 208
200 196 200
208 204 208
200 196 200
200 200 208
208 204 208
200 204 208
176 176 176
200 204 208
208 212 216
192 200 200
200 204 208
208 204 208
216 216 224
208 208 208
200 200 200
168 164 184
168 164 176
168 164 176
176 172 184
176 168 184
168 164 176
208 136 128
216 140 128
176 172 184
192 184 200
176 168 176
208 200 216
248 148 104
248 156 120
176 168 176
184 176 184
192 188 200
184 180 192
192 188 200
192 184 192
184 180 192
192 188 200
200 176 184
200 180 192
200 196 200
200 196 200
200 192 200
192 188 192
192 184 200
176 168 176
248 160 136
248 164 136
200 196 200
192 192 200
208 204 208
200 196 208
192 192 200
200 204 208
200 196 200
200 200 200
192 192 200
160 156 160
248 156 128
248 160 128
200 196 200
200 200 208
200 200 208
200 200 208
200 204 208
192 188 192
248 180 144
216 148 112
208 204 208
208 204 208
192 196 200
176 176 176
200 204 208
200 204 208
200 204 208
200 200 208
208 208 208
200 200 208
216 216 216
200 196 200
216 108 112
240 132 136
176 172 184
176 176 184
176 172 184
168 160 168
240 156 144
216 136 120
208 152 160
208 156 160
176 168 184
192 180 192
224 164 152
232 168 152
240 152 136
240 156 136
248 136 112
248 160 128
184 180 192
176 176 184
248 144 112
248 160 128
192 192 200
208 204 216
192 188 200
176 176 184
248 188 152
248 172 136
184 176 184
192 184 192
240 172 144
216 152 120
224 172 184
224 172 184
200 196 200
200 196 208
192 188 192
192 180 192
192 192 200
200 200 200
192 192 200
184 184 192
224 144 144
248 172 176
192 192 200
192 192 200
192 192 200
208 208 216
208 204 208
176 176 184
248 172 144
248 188 160
200 204 208
152 152 160
232 140 120
240 148 128
208 204 208
200 200 208
192 192 200
200 200 200
200 204 208
192 192 192
208 208 208
208 204 208
240 116 80
248 128 96
176 172 184
176 172 184
216 144 136
216 148 136
184 164 184
184 164 184
248 168 112
240 152 96
176 168 176
184 184 192
248 184 120
224 160 96
240 124 120
240 128 120
248 152 112
248 148 104
192 180 184
184 176 184
208 188 200
200 180 192
192 188 200
200 192 200
192 192 200
184 176 184
248 252 176
224 192 120
184 180 192
208 204 216
216 204 200
192 176 168
216 152 160
232 172 176
224 152 136
248 184 168
248 160 144
248 160 136
248 152 128
248 168 144
200 192 200
192 192 200
208 204 208
200 192 192
200 200 208
152 152 160
248 140 128
248 144 128
208 196 200
208 196 200
216 152 152
248 184 184
192 192 200
192 192 200
240 132 104
248 144 120
208 208 208
200 200 200
200 192 192
208 204 208
200 200 208
192 188 192
192 200 200
200 204 208
168 152 160
184 168 176
168 160 176
144 140 152
208 132 128
224 148 152
248 96 80
248 128 112
216 124 112
224 140 128
176 168 184
184 176 192
224 148 152
224 148 152
192 176 192
248 252 248
248 244 216
248 220 192
248 252 240
248 252 248
200 192 200
184 180 184
248 152 104
248 164 120
192 188 192
192 188 192
208 192 200
216 200 208
184 180 192
200 192 200
248 184 136
248 208 160
240 148 120
240 148 120
208 156 152
224 180 176
208 128 128
232 152 144
248 160 136
248 168 152
200 184 192
192 180 192
200 196 200
224 220 232
200 196 200
168 160 168
200 192 192
200 188 192
248 148 104
248 164 128
208 204 208
208 204 208
192 188 200
184 180 184
216 140 136
240 160 160
208 204 208
120 124 120
248 164 160
248 176 168
200 200 200
200 200 200
200 200 208
192 192 200
160 160 176
160 156 168
248 116 80
248 132 96
176 168 184
168 156 176
176 152 168
192 160 176
208 156 168
216 164 176
176 168 176
232 220 232
248 196 96
248 168 72
184 176 192
184 176 192
248 148 104
248 208 160
248 188 104
248 172 88
200 192 200
168 160 168
248 212 128
248 208 128
200 184 192
192 180 192
208 200 208
176 168 176
224 160 152
248 192 176
208 160 152
224 184 176
248 156 136
248 168 144
216 204 208
160 152 152
208 196 200
208 196 200
200 192 200
240 228 232
240 152 96
248 164 112
208 208 208
192 188 192
208 176 184
224 188 192
208 204 208
192 188 192
200 192 192
208 204 208
208 208 216
208 208 216
216 152 144
216 148 144
248 128 96
232 112 80
200 204 208
216 220 224
200 200 208
208 204 208
200 196 200
200 196 200
200 196 200
192 192 200
200 144 152
208 148 152
184 132 144
200 152 168
176 160 176
176 168 184
184 176 192
168 164 176
248 180 112
248 184 112
184 168 184
184 172 184
232 156 144
224 152 136
240 128 112
248 148 128
192 148 160
184 148 152
224 156 152
232 164 160
184 180 192
192 180 192
192 180 184
200 188 192
216 152 152
216 152 152
208 200 200
160 152 152
224 156 136
248 188 168
200 188 192
184 176 176
192 188 192
200 196 200
248 124 112
248 124 112
248 128 112
248 160 152
200 196 208
232 220 232
248 180 96
248 176 88
216 208 216
192 188 192
248 188 160
248 180 152
240 180 136
224 160 120
200 196 200
200 196 200
208 204 208
168 168 168
248 148 120
216 108 80
232 144 128
248 152 136
192 200 208
216 220 224
200 200 200
200 204 208
192 188 192
208 200 208
200 196 200
192 188 192
248 184 136
248 176 128
248 152 128
248 136 112
240 136 128
248 144 136
184 176 184
184 176 192
240 140 128
232 136 120
248 172 112
248 156 96
184 180 192
184 176 192
248 128 104
248 132 104
184 176 192
192 188 200
200 136 144
216 148 160
248 140 104
248 164 128
192 184 192
192 184 192
192 188 192
184 176 184
208 192 192
192 184 184
200 180 184
216 200 200
192 180 184
192 184 184
200 168 160
224 184 176
224 136 136
232 152 152
208 192 192
200 184 192
248 156 120
248 180 144
216 168 184
216 168 184
248 128 96
248 124 96
240 160 144
248 176 160
216 200 192
200 184 176
200 200 208
200 200 208
240 172 144
248 184 160
208 196 200
184 176 176
200 196 200
208 204 216
192 192 200
216 212 216
208 200 200
208 200 200
208 204 208
200 196 200
200 196 200
192 192 192
176 164 176
176 168 176
224 124 120
232 140 136
224 136 128
248 164 160
176 172 184
192 188 200
176 164 176
192 184 192
248 244 168
240 196 120
184 176 192
192 180 192
216 168 168
216 168 176
184 180 192
192 188 200
232 156 144
216 140 128
248 148 104
248 140 96
200 184 192
200 180 192
248 140 88
248 152 96
240 192 192
224 176 176
200 188 200
208 196 208
200 180 192
192 180 192
248 132 88
248 136 88
216 172 192
208 160 184
216 120 96
248 164 136
216 200 208
192 172 176
216 128 120
232 140 136
248 164 160
248 180 176
200 192 200
208 196 208
232 116 112
248 156 152
200 196 208
176 176 184
248 176 112
232 140 72
200 200 208
200 196 200
200 196 200
208 204 208
208 180 184
160 132 136
248 232 168
248 196 136
248 152 112
248 168 128
192 196 200
192 196 200
176 168 184
176 172 184
176 168 184
168 160 176
176 164 176
192 176 184
240 144 120
248 192 168
240 144 104
224 136 88
248 176 104
232 144 80
184 164 176
200 176 192
248 188 136
232 160 112
240 180 168
232 176 160
184 172 184
192 188 200
192 164 176
200 172 176
248 184 136
240 156 104
216 128 120
240 148 144
232 188 184
248 204 200
240 164 144
240 160 136
248 136 96
248 124 80
248 136 72
248 164 104
240 148 128
232 136 120
224 180 176
224 180 176
208 204 208
208 200 208
200 192 200
200 192 200
248 144 112
248 160 128
248 176 136
248 168 128
232 156 144
216 140 128
216 204 208
184 168 168
248 132 80
248 164 112
240 120 112
232 108 104
216 148 144
216 148 144
216 132 120
184 104 88
248 248 168
232 200 120
200 196 200
200 196 200
184 184 192
184 184 192
168 164 176
168 164 176
168 168 184
168 164 176
240 116 104
248 136 120
176 164 176
184 164 184
240 156 136
248 180 160
184 176 192
184 180 192
200 196 208
144 136 144
248 124 80
248 148 112
200 188 192
184 168 176
200 164 176
200 168 176
248 160 96
248 136 72
200 184 192
200 188 200
208 196 200
200 184 192
224 208 208
200 188 192
240 164 136
232 156 128
208 144 144
224 164 160
248 168 120
248 184 136
192 184 200
176 164 176
232 136 120
248 160 144
224 172 168
232 180 176
240 172 152
208 140 120
224 148 144
248 184 176
200 188 192
200 192 200
200 160 160
216 176 176
192 180 192
184 168 176
248 160 160
216 132 128
208 196 200
208 192 192
192 184 184
192 184 184
224 156 128
248 192 168
200 196 200
200 200 200
200 200 200
200 192 200
200 200 200
152 148 152
200 84 88
224 112 112
168 164 176
176 172 184
168 160 176
160 152 160
176 172 184
176 172 184
184 176 184
192 188 192
216 156 152
232 172 168
200 176 192
192 168 184
192 180 192
208 196 208
192 184 192
184 184 192
184 184 192
200 192 200
176 168 176
184 176 192
192 180 192
200 184 192
208 180 192
184 160 168
248 200 128
248 168 96
216 184 200
192 156 168
208 164 168
232 184 184
248 216 160
240 188 128
208 160 176
200 152 168
184 144 160
248 224 240
248 168 104
248 164 104
224 160 144
248 180 160
200 196 200
200 196 200
224 152 136
232 168 152
200 188 192
168 156 160
184 124 136
240 180 192
200 112 112
208 124 120
208 184 192
184 160 168
216 176 184
232 200 208
192 160 176
224 192 208
224 108 96
248 164 152
200 200 200
200 196 200
200 204 208
192 196 192
160 152 168
168 160 176
192 152 168
200 160 176
224 120 136
240 140 152
176 168 184
176 168 176
224 168 160
248 200 192
240 172 152
232 160 136
248 140 128
240 132 120
192 188 200
200 192 200
184 184 192
184 176 192
232 144 144
224 132 128
192 180 192
168 156 168
200 188 200
160 148 160
208 196 200
192 176 176
224 204 208
200 180 184
248 132 112
248 148 128
216 136 128
248 180 176
248 160 144
248 176 160
224 120 112
240 128 120
200 184 192
176 160 168
240 172 144
240 172 144
240 132 96
248 168 128
208 204 208
208 200 200
224 120 96
248 168 144
184 172 176
152 140 144
248 124 96
248 116 88
224 112 96
232 124 112
208 196 200
208 196 200
192 184 184
152 148 152
248 188 128
248 196 136
208 204 208
200 196 200
248 176 128
232 140 88
192 196 200
208 204 208
168 164 176
160 152 168
208 116 104
248 164 152
176 168 176
168 160 176
240 128 96
248 144 112
176 168 184
200 192 208
208 156 152
216 164 160
224 156 152
216 152 144
184 172 184
168 160 168
240 116 112
248 132 128
248 152 112
248 148 104
216 168 168
224 172 176
200 196 200
184 180 184
248 176 168
248 160 152
248 188 112
248 168 88
240 208 200
184 152 144
192 176 184
200 184 192
200 192 200
200 196 200
200 196 200
200 192 192
216 152 160
216 148 152
248 176 128
232 148 104
248 140 104
248 152 112
232 156 128
248 176 144
248 164 112
248 144 88
240 128 96
248 164 128
208 144 144
240 172 176
208 196 200
200 192 200
232 136 120
248 148 128
192 188 192
192 188 192
192 164 168
224 192 192
200 204 208
208 204 208
200 180 184
208 188 184
200 196 200
208 204 208
192 148 160
192 144 160
184 144 160
192 152 160
176 168 184
192 188 200
248 204 128
240 160 80
176 168 184
208 200 216
192 176 192
184 172 184
184 176 184
176 168 176
176 168 184
192 184 200
240 144 112
248 152 120
224 124 120
248 160 152
192 184 192
192 188 192
200 196 200
168 164 176
248 252 176
216 188 104
208 200 208
192 184 184
216 212 216
224 216 224
248 192 88
224 140 40
216 160 160
248 204 208
240 180 184
240 180 184
208 136 136
216 140 144
240 148 120
232 144 112
248 148 88
248 156 96
248 152 88
248 176 112
248 120 88
248 124 88
248 156 112
248 156 112
248 132 112
248 140 120
200 196 208
208 204 216
192 172 176
192 176 176
184 188 192
208 212 216
176 180 184
200 200 208
184 184 192
200 200 208
192 192 200
192 192 200
200 204 208
224 224 224
232 120 120
224 112 120
232 88 72
248 124 112
168 168 176
168 164 176
208 152 144
216 156 152
176 164 176
192 176 192
248 120 96
248 136 112
176 164 176
160 152 160
184 168 184
192 180 192
232 116 120
248 132 136
184 180 184
200 196 200
208 164 176
192 148 152
224 132 128
248 156 152
208 196 200
192 180 192
224 212 216
192 184 184
216 212 208
216 208 208
248 240 160
240 196 112
200 192 200
208 196 200
224 196 200
216 184 192
200 188 200
176 168 176
248 164 160
248 180 168
208 176 192
192 156 168
248 164 128
248 172 136
224 188 176
248 216 208
240 148 136
248 172 160
200 196 200
168 164 168
232 168 176
248 196 208
200 192 200
160 156 160
192 188 192
216 212 216
184 184 192
208 204 216
176 172 184
144 140 152
192 188 192
152 152 160
248 144 120
248 196 168
176 156 168
168 148 160
200 124 128
208 132 136
168 160 176
176 168 176
176 168 176
176 168 184
248 164 104
248 140 80
240 124 112
240 124 112
184 148 160
216 176 192
200 164 168
208 172 184
248 108 96
248 124 112
192 176 184
200 188 192
224 144 144
200 124 120
216 160 160
248 200 200
248 152 112
248 160 120
232 228 224
184 176 176
208 200 208
192 184 192
224 164 160
232 172 168
200 188 192
208 200 200
216 172 184
232 188 200
248 192 120
248 184 112
200 180 192
176 160 176
248 228 160
240 192 128
216 200 200
216 196 192
216 204 208
184 180 184
240 164 160
248 172 160
208 200 200
168 156 160
192 180 184
224 216 224
224 212 216
176 164 168
200 164 168
224 192 192
248 124 104
240 112 88
168 156 168
176 164 176
184 184 192
208 204 208
192 192 192
208 208 208
248 132 96
248 112 72
168 156 168
152 144 152
216 116 112
232 132 128
168 152 168
176 160 176
248 212 136
232 160 80
248 124 96
248 124 96
208 136 144
208 132 136
192 168 176
200 176 184
192 180 184
168 148 152
184 184 192
232 224 232
184 176 184
200 192 200
192 164 184
208 180 200
248 152 112
248 144 96
232 204 200
200 168 168
216 208 208
184 180 184
176 176 184
176 172 176
248 148 104
248 156 112
224 156 160
240 168 168
248 216 128
248 252 168
248 176 112
216 116 56
248 252 208
208 176 128
248 228 144
240 184 96
248 124 96
248 200 168
248 144 96
248 148 104
232 124 104
248 148 128
200 200 200
208 204 208
216 212 216
208 204 208
192 188 192
192 192 200
192 88 88
224 124 128
208 168 168
224 184 192
184 184 192
200 200 208
200 184 192
176 164 168
168 160 176
160 152 168
216 140 144
224 148 152
248 112 64
248 132 80
168 160 176
192 180 192
192 160 160
208 172 168
240 136 104
224 120 88
248 144 136
248 144 136
184 176 184
192 184 192
208 160 152
200 152 152
184 180 192
192 184 192
216 156 160
232 172 176
200 196 200
176 172 184
224 160 160
232 172 176
248 244 176
208 176 112
216 148 144
240 168 168
208 140 144
208 144 144
248 188 112
248 168 96
232 192 184
216 176 168
184 156 160
208 180 184
248 140 88
248 128 80
232 156 144
232 156 144
216 148 144
248 200 192
200 192 192
216 204 208
192 180 184
176 160 168
192 172 176
208 196 200
200 200 208
200 200 208
200 196 200
192 192 200
208 128 120
248 172 168
184 184 192
200 196 200
192 188 200
120 116 128
224 160 168
184 124 128
248 188 112
224 124 48
200 140 136
208 144 144
160 156 168
192 184 200
208 144 136
208 144 136
176 168 176
168 156 168
248 160 96
248 152 88
192 176 184
176 160 168
248 152 96
248 152 88
184 172 184
176 168 176
192 176 176
192 176 176
192 184 184
176 168 176
248 112 88
248 132 112
192 188 192
176 172 176
248 136 120
248 148 128
248 188 152
232 160 128
200 192 200
192 184 184
216 148 128
224 156 136
192 180 192
168 148 160
208 172 168
224 188 184
192 180 184
192 180 184
248 140 88
240 108 56
232 172 176
216 160 160
248 136 96
248 116 80
248 132 120
248 156 144
240 176 168
232 164 152
200 188 192
184 172 176
200 196 200
200 196 200
192 184 184
168 164 168
232 128 104
248 168 144
176 180 184
192 192 200
224 108 72
248 156 120
216 152 152
232 168 168
232 140 128
248 180 168
224 124 104
232 132 112
168 164 176
176 164 184
176 164 176
176 168 184
176 164 176
176 160 176
248 144 88
248 152 96
248 140 96
248 136 96
176 164 168
192 176 184
184 176 184
184 172 176
176 164 168
192 184 192
248 136 88
248 148 96
184 176 184
184 172 184
192 176 192
168 156 168
248 164 104
248 136 80
216 184 192
216 184 192
184 176 184
200 196 200
248 168 112
248 176 120
192 176 184
192 184 192
184 184 192
192 188 200
200 196 200
192 188 192
192 180 184
160 144 144
248 120 96
248 128 104
248 112 88
248 152 128
248 144 112
240 124 96
240 124 96
248 160 136
216 188 184
160 128 128
224 188 200
216 184 192
200 196 200
192 188 192
208 124 128
232 144 144
184 180 192
200 196 208
216 120 120
248 168 168
248 176 120
216 120 64
192 192 192
160 160 160
168 160 168
160 156 168
192 144 160
200 156 168
240 140 120
232 128 112
224 116 112
248 140 136
208 144 152
200 136 144
248 140 88
248 140 96
176 168 176
184 176 184
232 136 136
216 124 120
216 156 160
216 160 160
184 176 184
192 180 184
200 156 168
248 244 248
248 176 160
208 140 128
248 136 96
248 140 104
248 208 120
248 252 176
184 180 184
192 188 200
192 180 184
192 176 184
216 176 168
232 192 184
200 192 200
200 192 200
248 124 96
248 152 120
200 188 192
184 176 184
248 176 120
232 124 72
248 148 96
248 136 88
208 196 200
192 184 192
248 140 104
248 136 96
200 196 200
200 188 192
200 192 200
152 144 152
208 132 128
248 172 168
200 184 184
176 160 160
184 172 184
160 152 160
240 100 88
248 140 128
248 148 112
224 116 80
224 128 120
240 144 136
248 176 128
248 176 128
232 120 96
248 152 128
248 144 88
248 136 80
232 112 112
248 136 136
176 164 184
168 156 168
248 140 88
248 144 88
184 168 176
184 172 176
240 124 112
248 140 128
240 120 88
248 136 104
248 200 112
248 160 72
184 176 192
208 200 216
192 180 192
192 180 192
192 180 192
208 196 208
248 188 112
248 196 120
184 180 184
160 152 160
248 116 96
248 128 112
192 156 168
248 216 224
192 192 200
184 176 184
248 124 96
248 128 96
200 196 208
192 188 192
248 184 104
248 168 88
192 132 136
200 140 144
200 196 200
208 204 208
208 200 200
200 196 200
192 184 176
216 204 200
200 188 192
192 180 192
240 168 168
224 156 160
248 156 144
248 164 144
176 176 184
160 156 160
248 124 96
248 184 160
216 204 208
200 188 192
216 132 96
248 168 136
176 152 152
160 136 136
248 172 112
232 120 64
184 120 128
216 148 152
232 124 120
248 140 136
168 168 184
176 172 184
176 168 176
184 180 192
248 204 112
248 168 72
216 132 144
232 144 152
232 152 144
240 152 144
200 168 176
200 172 184
232 168 160
248 180 168
248 152 136
248 188 176
248 164 144
248 184 168
208 200 208
176 176 184
248 180 120
248 156 96
224 136 128
240 148 136
184 176 184
200 196 200
208 200 208
192 192 200
184 168 168
200 184 184
248 128 88
248 176 136
200 196 200
184 176 184
208 200 208
208 192 200
200 196 200
200 200 208
208 176 184
224 192 200
200 192 192
200 196 200
192 184 184
160 152 152
200 188 192
200 192 200
184 176 184
200 192 200
192 188 200
168 164 176
248 252 240
248 252 232
208 168 176
200 160 168
232 220 208
192 184 176
224 208 208
224 208 208
208 172 168
208 176 168
248 128 128
240 128 120
248 124 88
248 148 112
248 208 104
248 180 72
184 180 192
152 144 152
248 184 112
248 160 80
208 152 160
224 172 176
248 164 112
248 180 136
248 152 112
248 196 152
248 204 136
248 196 128
232 220 216
216 204 200
240 224 216
240 224 216
240 236 232
200 188 184
248 160 88
248 168 96
208 200 200
208 200 208
192 192 200
184 180 184
216 152 160
232 172 184
192 192 200
200 196 200
200 152 152
232 188 184
200 184 192
168 156 160
248 136 96
248 144 104
208 204 208
168 160 168
248 120 104
248 144 128
208 200 208
192 188 192
176 164 168
136 124 128
248 124 88
248 116 80
248 144 120
224 124 96
184 172 176
216 204 200
248 204 136
248 252 192
248 192 152
248 200 160
216 216 208
192 192 184
248 188 120
240 172 104
248 176 128
232 160 112
176 168 176
152 144 152
248 112 104
248 136 128
248 208 112
248 204 104
224 200 200
224 200 200
208 188 192
208 184 192
248 124 88
248 128 88
216 148 144
240 168 168
224 136 96
240 152 112
248 188 128
248 164 96
192 188 192
192 192 200
200 188 200
176 172 176
248 136 104
248 140 104
248 140 112
248 160 128
192 180 192
160 156 168
216 152 160
216 156 160
248 180 120
248 144 80
208 160 160
232 180 184
200 188 192
192 188 192
232 128 96
240 140 112
248 132 80
248 144 96
208 200 200
208 200 200
208 180 192
208 176 184
240 156 136
248 176 152
168 156 168
160 144 152
248 112 96
248 112 96
248 124 88
248 136 104
208 184 184
184 160 160
248 176 112
248 244 184
232 224 216
216 204 200
208 200 200
224 216 216
192 140 152
200 152 160
184 164 160
184 160 160
184 172 184
176 164 176
248 120 96
248 128 104
184 176 184
184 176 192
248 180 112
240 156 88
184 172 184
184 172 184
240 136 104
248 144 112
192 180 192
184 180 192
192 184 192
192 180 184
184 168 176
176 160 168
184 176 184
184 180 192
184 180 192
160 156 168
248 212 144
232 164 88
248 148 136
248 164 152
248 104 80
248 140 120
184 184 192
144 144 152
248 144 112
248 152 112
240 144 112
248 160 128
192 188 192
192 184 184
248 104 72
248 112 80
248 128 80
248 116 72
208 184 192
192 168 176
216 172 184
216 176 184
240 156 112
248 160 120
232 184 184
208 156 152
200 176 184
184 168 168
192 164 168
184 152 160
248 188 128
240 164 104
248 252 248
248 252 248
200 196 200
200 192 192
200 192 192
192 192 192
168 160 168
160 152 160
248 120 96
248 112 88
184 140 152
184 136 144
208 148 160
216 156 168
184 172 184
184 172 184
248 192 88
248 200 96
200 144 160
240 188 208
216 148 136
248 172 160
248 156 104
248 152 104
240 152 136
240 152 136
240 164 152
216 136 128
200 132 144
216 152 168
248 100 80
248 120 96
248 144 120
240 140 112
248 148 96
248 176 128
192 184 192
192 188 192
192 192 200
192 188 192
192 188 192
208 196 200
192 188 200
192 184 192
192 188 192
184 176 184
232 144 136
224 132 128
248 120 80
248 140 104
208 192 208
208 196 208
192 176 184
192 180 184
248 164 120
248 176 136
216 184 184
216 184 184
248 160 104
248 188 136
248 156 96
248 156 96
248 176 112
248 176 112
248 172 120
248 244 192
192 180 176
176 164 168
232 148 96
248 176 120
168 160 176
160 148 160
232 128 104
216 112 88
248 116 104
248 108 88
176 152 160
184 160 176
200 152 144
216 160 152
184 172 184
184 172 184
184 148 160
208 168 184
224 132 112
248 200 184
248 228 120
224 168 56
248 192 120
248 148 72
184 164 176
176 156 168
224 132 128
248 156 160
232 124 128
232 124 128
192 184 192
184 180 184
184 176 192
208 200 208
248 156 112
232 144 96
192 184 192
176 172 176
232 124 112
248 144 128
192 188 192
200 196 200
192 184 184
192 184 192
224 144 136
208 124 120
248 160 128
240 144 112
248 180 144
248 180 144
248 148 104
248 184 144
248 164 120
248 168 120
192 196 200
192 196 200
184 144 144
192 160 152
248 168 112
248 180 120
232 144 96
248 168 120
248 252 224
240 228 200
200 160 152
160 120 112
224 132 120
240 144 136
176 132 152
184 132 152
168 160 168
168 164 176
184 136 152
176 132 144
176 144 160
192 160 168
176 164 176
184 168 176
176 168 184
184 176 184
176 168 184
176 168 184
176 168 176
176 164 176
216 156 152
216 152 152
248 168 104
248 164 104
184 180 192
184 176 192
184 180 192
176 176 184
176 176 184
176 172 184
224 140 136
208 132 128
184 176 184
200 192 200
248 148 104
240 128 88
200 184 192
192 176 184
248 156 112
248 168 128
192 192 200
208 204 208
248 204 120
248 184 96
208 116 120
224 128 128
208 180 192
192 164 176
248 228 160
232 176 112
184 176 184
176 164 176
248 148 136
248 164 152
200 188 200
200 196 200
248 168 112
240 152 96
240 144 136
248 160 160
192 164 168
200 172 184
192 188 192
248 252 248
200 188 192
200 184 184
192 180 184
192 184 184
200 104 104
192 100 104
184 144 152
200 160 168
168 164 176
168 160 168
176 164 176
176 164 176
240 100 72
248 104 80
248 172 112
248 200 136
176 164 176
176 164 176
224 120 88
248 148 112
176 168 176
184 176 184
176 176 184
184 176 184
176 172 184
152 152 168
240 132 136
248 148 144
184 180 192
176 172 184
248 148 104
248 120 80
184 184 192
192 188 192
184 172 176
176 160 168
192 184 192
192 188 192
184 184 192
192 188 192
224 216 216
224 216 216
200 196 200
200 188 192
200 192 200
192 184 192
200 196 200
216 216 224
248 144 112
248 200 168
200 196 200
200 192 192
224 120 104
248 160 144
184 148 160
224 184 200
224 108 88
224 108 88
248 120 104
248 144 128
248 148 112
240 124 88
184 180 184
176 172 176
248 164 144
248 164 144
192 188 192
192 188 192
168 160 168
168 156 168
168 164 176
176 168 176
168 164 176
168 160 168
176 160 176
176 164 176
248 108 80
248 136 104
248 196 104
248 168 80
176 140 160
192 156 176
248 164 96
248 144 72
168 164 168
168 164 168
184 168 160
192 176 168
168 164 176
168 164 176
248 168 112
248 156 104
184 176 184
184 180 192
240 132 128
248 136 128
192 156 168
184 152 160
248 148 104
248 140 96
248 148 96
248 160 104
208 124 136
224 136 144
192 188 192
192 188 192
184 168 176
184 168 176
248 124 88
248 164 136
200 196 200
192 188 192
248 148 120
248 148 120
248 180 112
232 156 88
192 168 168
176 156 152
200 192 192
192 184 192
200 192 192
160 152 152
240 112 80
248 156 120
176 160 168
144 124 128
184 164 176
200 184 192
248 164 120
248 164 128
176 180 184
120 124 128
160 156 168
160 152 160
224 112 104
248 136 128
168 160 176
176 176 192
248 112 80
248 108 80
248 104 72
248 120 88
184 172 176
168 160 168
200 144 152
200 148 160
248 116 96
248 128 104
248 144 112
248 156 128
248 144 112
248 152 120
176 160 168
168 152 160
248 140 104
248 148 112
248 196 128
224 160 96
184 184 184
176 176 184
232 120 112
248 156 144
248 152 112
248 124 80
248 168 104
248 176 112
232 112 120
240 116 120
192 180 192
168 156 168
232 92 88
248 116 112
248 156 104
248 160 104
192 172 184
192 180 192
248 168 96
232 152 72
248 140 80
248 184 128
192 188 192
200 192 192
192 192 200
184 184 192
232 184 176
224 180 176
192 184 192
184 176 184
248 132 112
240 116 96
240 128 120
248 180 176
248 144 96
248 160 112
192 188 192
160 156 160
160 148 160
152 144 152
248 128 104
248 132 104
216 132 144
208 132 136
176 156 168
200 180 192
240 124 80
248 136 96
216 144 144
216 140 136
200 120 120
224 144 144
248 124 88
248 132 96
184 144 160
200 160 176
168 164 168
192 180 192
248 192 88
248 156 56
184 172 176
176 168 176
176 168 176
168 160 168
240 136 120
248 152 136
184 176 184
176 168 176
200 164 176
192 160 168
208 156 168
200 152 160
192 180 192
168 164 176
184 180 184
184 180 184
184 180 184
184 180 184
200 116 120
232 152 152
184 172 184
184 172 184
248 136 96
248 156 112
192 192 200
192 188 200
192 192 200
192 192 200
184 172 168
232 220 216
208 164 160
192 152 144
232 164 168
200 132 128
240 148 144
224 132 128
240 104 80
248 144 120
184 180 184
160 156 160
240 148 136
248 156 144
248 116 104
248 112 96
168 156 168
176 164 176
248 156 96
248 164 104
184 148 160
192 164 176
176 168 176
184 176 184
224 136 144
232 148 152
248 124 88
248 136 104
160 152 160
176 168 176
176 168 176
176 168 176
176 168 184
224 224 232
248 176 96
248 144 64
176 168 176
184 172 184
168 168 184
168 172 184
248 128 88
248 164 120
248 176 88
248 164 80
208 164 160
232 192 184
248 200 112
232 156 72
248 136 104
240 112 80
248 140 112
248 164 136
192 188 192
192 188 192
240 84 72
248 124 112
192 184 192
192 188 192
184 168 176
168 148 160
248 144 128
240 140 120
192 172 184
176 156 168
192 184 192
192 188 192
184 180 184
168 160 168
224 124 112
248 144 136
200 176 184
168 140 144
232 108 96
248 132 112
184 184 192
192 184 192
248 160 120
248 164 128
224 116 120
232 128 128
168 164 176
168 164 176
168 164 168
168 164 176
200 132 144
200 132 144
240 128 128
248 140 136
176 168 176
184 172 184
176 168 176
184 172 184
176 172 176
160 156 168
248 160 104
248 136 80
248 152 112
248 164 120
176 168 176
176 168 176
248 156 96
248 140 80
176 176 184
176 168 176
208 160 168
208 160 168
248 168 96
248 152 80
248 120 88
248 144 112
184 180 184
176 168 176
200 164 168
200 160 168
192 180 184
192 180 192
200 132 128
232 164 160
208 184 192
176 152 160
248 128 88
248 132 96
248 160 144
248 160 144
248 144 96
248 144 96
224 96 88
248 128 120
176 168 176
160 148 160
248 160 120
224 132 96
232 164 160
216 152 144
200 140 120
200 136 120
216 104 80
232 120 96
208 160 168
176 132 136
232 128 112
248 160 144
160 160 168
152 152 160
176 132 144
192 148 160
168 164 176
168 164 176
176 140 160
184 148 168
232 112 104
240 120 112
248 128 88
248 136 96
208 176 176
208 168 168
240 136 104
240 140 104
240 116 104
248 180 168
248 180 128
248 148 88
176 168 184
144 144 152
248 108 56
248 168 120
176 172 184
160 152 168
232 172 160
224 164 152
184 172 184
200 192 200
248 120 96
248 136 112
192 184 192
192 184 192
184 184 192
168 164 176
248 192 136
248 172 120
184 140 152
208 156 168
216 140 128
216 136 128
208 180 176
200 172 168
200 124 128
216 144 144
248 148 144
248 168 160
224 132 112
248 160 144
192 96 96
216 116 120
224 172 168
224 168 168
192 188 192
192 184 184
192 188 184
192 184 184
216 88 88
240 112 112
192 180 192
192 180 192
184 188 192
176 180 192
168 168 176
160 160 168
200 128 136
208 136 144
192 140 144
200 144 152
200 172 168
192 164 168
168 164 176
176 168 176
248 156 104
240 116 64
240 152 112
240 152 112
240 140 112
240 148 120
176 168 176
168 160 168
248 164 144
232 152 128
176 168 176
168 164 168
248 196 112
248 204 128
176 160 176
168 148 160
248 176 112
232 132 64
248 188 88
248 192 96
184 168 176
144 128 136
224 120 96
248 152 128
192 188 192
168 168 176
248 204 136
248 176 112
192 188 192
184 180 184
192 184 192
176 172 176
224 132 104
240 156 128
248 160 104
248 164 112
184 176 176
176 164 168
208 168 176
208 168 168
184 112 112
240 168 168
192 188 192
152 144 152
192 188 192
184 184 184
184 180 184
184 180 184
176 176 184
152 144 152
168 168 176
168 164 168
160 160 168
160 160 168
176 172 184
192 192 200
208 144 152
200 136 144
168 160 176
168 164 176
208 148 152
216 152 152
168 168 176
160 160 168
248 136 104
248 144 112
176 164 176
176 164 176
208 156 160
200 152 152
248 124 96
240 116 88
168 160 168
168 160 168
176 168 176
176 168 176
176 168 176
176 168 176
176 172 176
176 168 176
176 168 176
184 172 176
184 168 176
208 196 208
176 172 184
168 160 168
248 188 128
216 156 96
184 180 184
176 172 184
184 176 184
184 176 184
216 152 144
248 184 168
184 164 168
176 164 168
208 128 88
240 160 120
176 160 168
184 168 176
168 160 168
144 136 144
240 116 96
224 96 80
160 132 136
176 144 144
168 160 160
152 144 152
160 156 160
160 160 168
216 100 88
248 132 120
232 104 104
248 132 128
152 152 160
120 120 128
184 108 112
208 132 136
248 116 104
248 116 104
160 160 168
160 160 168
184 148 160
192 152 168
168 164 176
168 164 176
176 172 176
168 164 176
176 168 176
176 172 184
176 168 176
160 156 160
240 152 128
216 128 104
160 148 160
152 140 152
144 128 136
176 164 176
192 136 144
184 128 136
152 144 152
160 148 152
152 148 160
160 152 160
160 148 152
144 140 144
176 164 168
200 188 192
160 156 160
136 132 136
184 168 176
184 168 176
176 172 184
184 176 184
184 180 192
184 180 192
208 180 176
208 184 176
232 184 176
224 172 160
192 184 192
192 184 192
184 184 184
160 156 160
200 192 200
192 188 192
200 104 104
240 148 152
224 136 128
232 144 136
224 140 136
192 116 112
232 120 112
248 156 144
184 180 184
192 188 192
232 164 152
240 172 160
192 176 168
216 200 192
248 168 112
248 140 88
240 100 80
248 116 96
160 156 168
144 144 160
240 112 88
248 128 104
160 160 168
176 168 184
240 140 112
240 140 112
176 172 176
176 172 184
160 156 168
168 164 176
248 212 144
208 136 64
168 164 176
168 164 176
168 164 176
152 144 160
248 108 88
248 120 104
240 104 88
248 116 96
168 168 176
168 164 176
248 132 104
248 172 144
248 156 104
248 180 128
176 168 176
192 184 200
248 140 96
248 136 88
200 140 136
208 148 144
240 152 144
240 156 144
184 152 160
192 160 168
192 188 192
184 184 192
192 132 136
208 152 152
192 144 152
192 152 160
192 188 200
192 188 200
232 148 136
232 144 128
176 168 176
144 132 144
192 184 192
192 184 192
192 188 192
192 188 192
184 96 96
248 160 160
208 164 152
248 204 192
216 132 112
216 140 120
208 144 144
224 164 160
168 160 176
168 156 168
208 104 112
224 120 128
248 132 96
248 152 120
160 152 160
168 160 168
248 152 96
248 140 80
208 136 128
192 116 112
224 132 120
224 128 120
248 172 120
248 176 128
160 152 168
152 144 160
224 128 104
232 132 112
176 168 176
168 160 168
224 100 80
248 128 112
216 112 104
232 124 112
192 124 128
200 136 136
248 120 72
248 144 96
192 176 176
136 124 120
208 132 128
216 144 144
248 168 104
248 168 104
248 120 80
248 112 72
248 184 128
248 216 160
248 168 160
240 160 152
176 172 176
152 152 160
208 104 104
232 124 128
208 152 160
224 164 176
248 148 96
248 156 112
184 184 192
192 188 192
216 152 112
224 164 120
200 160 160
216 184 176
160 140 144
184 164 168
232 148 136
216 136 128
200 184 192
200 184 192
248 188 144
224 148 104
168 160 176
152 152 160
232 116 112
240 120 120
160 160 168
152 152 160
232 96 96
240 100 96
192 156 160
184 148 152
240 120 96
240 120 96
240 136 104
240 132 104
240 132 112
240 136 120
168 164 176
152 148 160
200 112 96
224 140 120
176 168 184
168 164 176
176 144 152
176 152 160
232 140 120
208 116 96
184 160 176
176 156 168
232 108 96
248 164 152
192 184 192
168 164 168
216 124 128
240 152 160
184 176 184
160 160 168
216 128 128
200 112 112
248 212 168
248 224 176
208 176 184
200 172 176
192 184 192
176 172 184
184 172 184
176 160 168
248 172 112
248 152 96
184 180 192
192 188 200
184 184 192
184 180 192
216 140 128
224 148 136
232 156 136
248 164 144
184 188 192
192 192 200
192 188 192
136 132 136
240 132 120
248 152 136
200 128 128
224 148 152
168 164 168
168 164 176
224 124 104
232 128 104
160 152 160
144 140 152
208 132 128
208 128 120
224 140 120
232 148 128
224 120 104
216 112 96
184 148 160
184 140 152
240 112 88
248 132 104
200 136 144
208 144 152
248 176 104
248 152 80
168 164 176
152 152 168
248 180 96
224 140 56
248 168 96
248 140 72
176 164 176
184 176 192
240 152 120
240 148 120
192 188 192
184 176 184
168 160 168
184 176 184
248 124 88
248 144 104
168 136 144
200 164 176
216 148 152
224 160 168
176 160 168
160 148 152
184 176 184
152 144 152
240 92 88
248 136 128
192 180 184
184 176 184
176 160 176
200 180 192
176 180 192
176 176 184
216 176 176
216 172 168
184 176 176
176 172 176
216 120 104
248 156 144
176 144 152
160 132 136
248 144 96
248 152 104
184 180 184
176 172 176
176 172 176
168 164 168
216 128 96
216 124 88
168 156 160
176 164 168
168 156 160
192 180 192
248 196 120
248 180 104
168 164 176
160 156 168
240 100 80
248 144 120
168 156 168
168 160 168
168 160 168
168 156 168
216 136 120
224 152 136
168 164 176
160 160 176
232 132 120
232 132 128
248 156 112
248 168 120
248 136 104
248 148 120
240 148 120
248 200 168
200 168 168
208 180 184
184 184 192
184 180 184
224 160 168
232 172 176
248 116 80
248 112 72
192 180 192
184 180 192
184 180 184
176 176 184
192 176 184
200 184 192
184 176 184
168 152 160
240 164 144
208 132 112
200 136 120
184 120 112
192 188 200
160 160 168
248 216 160
208 140 80
192 192 192
184 176 176
192 180 184
184 180 176
184 180 192
144 140 152
232 124 88
248 152 120
184 184 192
136 136 144
248 128 96
248 168 144
248 168 136
192 112 88
192 160 152
224 188 184
184 156 152
192 164 160
240 172 144
232 164 136
200 184 184
200 184 184
192 184 184
176 168 176
192 164 160
176 144 144
248 112 88
248 140 120
176 160 168
168 156 168
184 176 184
184 176 184
176 168 176
176 168 176
176 160 168
176 160 176
248 164 120
248 192 144
232 220 216
184 172 168
248 152 96
248 148 88
248 136 104
248 152 120
224 208 208
224 208 208
208 200 200
192 184 184
216 208 200
224 212 208
208 204 208
176 172 176
248 148 96
248 172 128
200 196 200
176 172 176
248 124 72
248 156 112
232 196 184
176 144 128
240 208 200
208 180 168
248 156 112
248 172 128
208 196 184
240 224 208
248 192 136
248 192 136
208 204 200
216 208 208
216 208 200
224 216 208
184 184 184
192 192 192
248 248 184
216 176 112
200 188 184
160 152 144
248 176 144
248 196 160
168 136 144
184 148 160
168 160 168
152 144 152
248 192 112
224 136 56
160 156 168
152 152 160
248 168 96
248 140 64
168 160 168
168 160 168
248 108 88
248 124 104
208 144 144
208 144 144
176 168 184
176 168 184
176 172 184
168 164 176
184 172 176
232 224 232
184 180 184
184 176 184
168 164 176
176 176 184
248 172 112
232 136 72
248 168 112
248 156 104
176 168 176
152 148 160
192 168 184
168 144 160
248 136 128
216 108 104
248 116 88
248 148 120
176 172 176
160 152 160
192 172 184
192 172 184
176 172 184
192 188 200
176 176 184
176 172 184
248 152 104
232 132 80
184 176 184
176 172 176
192 172 176
192 176 184
176 176 184
184 180 184
184 180 184
184 180 184
168 156 160
168 156 160
176 160 168
152 136 144
224 112 104
248 136 128
168 156 168
160 148 152
240 168 120
248 172 120
168 160 168
160 152 160
248 188 112
224 136 64
160 136 152
144 120 136
248 208 104
240 160 56
160 152 160
160 152 160
192 112 112
216 136 136
248 144 96
232 116 72
216 128 112
224 136 128
168 168 176
168 168 176
168 120 128
240 192 200
184 180 184
176 172 176
176 172 184
152 152 160
192 128 120
176 108 104
248 220 144
232 172 96
168 164 176
168 160 168
240 112 96
208 88 72
248 136 112
240 104 80
224 140 152
232 148 160
248 184 136
216 124 72
224 156 160
232 160 160
168 164 176
160 152 160
248 136 88
248 144 88
208 160 136
216 168 144
176 180 184
136 136 136
224 104 88
240 120 104
176 172 176
176 176 184
200 92 88
248 140 136
248 144 104
232 128 88
216 124 128
208 112 112
240 124 88
240 124 88
168 164 176
152 148 152
248 148 88
232 128 64
168 168 176
160 160 168
176 132 144
176 132 144
160 156 168
160 156 168
168 152 160
152 136 144
248 140 88
248 140 88
168 160 168
160 160 168
232 156 136
200 128 104
184 152 160
192 152 160
168 168 176
168 164 176
240 108 56
248 156 104
216 132 112
248 196 176
176 168 176
136 136 144
248 160 112
248 144 96
248 148 120
248 148 120
176 168 176
160 152 160
232 128 112
248 144 128
176 172 184
136 132 144
216 100 96
232 112 112
248 224 176
248 216 168
232 148 128
240 152 128
176 176 184
176 180 184
224 144 144
240 164 168
168 168 176
152 152 160
184 180 184
160 160 168
216 132 112
176 92 72
176 176 176
184 180 184
192 88 88
248 152 152
176 164 176
144 140 144
176 152 144
160 136 128
200 128 120
224 148 136
160 156 168
152 152 168
184 144 160
184 148 160
160 156 168
160 160 176
216 140 144
208 136 144
184 136 144
184 132 144
200 116 104
216 136 128
248 160 104
248 144 88
160 160 176
168 172 184
160 156 168
160 156 168
168 164 176
176 168 176
168 168 176
168 164 168
176 168 176
200 196 200
248 216 112
248 240 136
184 148 144
224 196 192
192 160 160
192 160 160
176 104 112
216 148 152
176 168 176
160 156 168
248 128 88
248 112 72
176 168 176
128 124 136
240 100 80
248 136 120
248 160 104
240 124 72
240 156 152
232 152 144
168 172 184
184 184 192
168 168 176
176 180 192
176 172 184
152 148 160
168 168 176
184 184 192
176 176 184
184 180 192
208 132 120
184 112 96
200 136 136
184 116 120
176 120 112
208 148 136
176 168 176
176 168 176
224 108 96
240 124 112
184 152 152
160 136 128
200 112 96
200 108 96
152 132 144
168 144 152
216 104 104
208 100 104
168 132 144
192 160 168
216 128 104
216 132 104
160 156 168
152 152 168
168 168 176
168 164 168
160 156 168
136 132 144
200 112 104
232 144 136
208 132 112
224 144 120
224 160 160
176 116 120
248 128 112
248 152 136
176 168 176
160 148 152
240 116 96
248 144 128
240 112 104
248 120 112
248 192 104
248 208 120
208 108 112
208 112 112
176 160 176
184 172 184
192 180 192
184 176 184
176 168 176
168 156 168
208 120 128
232 144 152
144 132 144
136 132 144
168 160 176
144 144 160
192 168 168
184 160 160
208 144 128
224 160 144
184 184 192
168 172 176
224 116 88
224 116 88
176 112 112
200 136 136
216 132 128
224 140 136
176 148 160
176 140 152
248 196 128
248 232 168
232 136 96
216 128 88
168 100 96
168 96 96
160 132 136
176 144 144
168 168 176
152 152 160
160 156 168
152 152 160
232 96 72
248 112 88
208 136 128
208 136 128
160 152 160
144 136 152
184 128 128
192 140 136
176 156 160
176 152 160
248 128 96
248 132 96
208 124 104
216 128 112
248 88 56
248 140 104
248 112 96
248 132 120
160 152 160
160 152 152
176 168 176
184 172 184
176 164 176
184 168 176
176 172 184
160 152 160
232 92 72
248 136 120
200 128 128
224 152 152
232 128 104
216 108 80
248 108 96
248 108 96
184 184 192
152 148 160
176 144 152
192 160 168
200 128 104
208 132 112
248 196 96
248 176 80
152 128 144
200 180 200
184 164 168
176 156 160
184 184 192
168 164 168
168 80 72
224 136 128
